<svg xmlns="http://www.w3.org/2000/svg" viewBox="0 0 299 226.7"><defs><style>.a{fill:#dbdfe0;}.b{fill:#f0f1f2;}.c{fill:#0071bc;}.d{fill:#e3e6e7;}.e{fill:#f4f4f5;}.f{fill:#fafafb;}.g{fill:#0d5e8c;}.h{fill:#e4f4f5;}.i{fill:#a5c63b;}.j{fill:#c9e9ec;}.k{fill:#e67e22;}.l{fill:#3498db;}.m{fill:#e49701;}.n{fill:#ebf7f8;}.o{fill:none;stroke:#c9e9ec;stroke-linecap:round;stroke-linejoin:round;}.p{fill:#e74c3c;}.q{fill:#a3abaf;}</style></defs><title>science-cow</title><rect class="a" x="199.7" y="141.7" width="99.3" height="4"/><path class="b" d="M170.8,137.9c23.2,0,42,17,42,37.72v51h-42" transform="translate(0 0.1)"/><path class="c" d="M231.5,226.6a18.7,18.7,0,0,0-37.4,0" transform="translate(0 0.1)"/><path class="d" d="M59.7,137.9c-23.2,0-42,17-42,37.72v51h42" transform="translate(0 0.1)"/><path class="c" d="M0,226.6a18.7,18.7,0,0,1,37.4,0" transform="translate(0 0.1)"/><path class="e" d="M49.2,226.6V141.82c0-11.13,10.4-19.72,22.7-19.72H159c12.3,0,22.2,8.6,22.2,19.72V226.6" transform="translate(0 0.1)"/><path class="f" d="M159,121.6c12.3,0,22.7,9.05,22.7,20.19V226.6h-68V177.72" transform="translate(0 0.1)"/><polygon class="d" points="114 183.9 114 183.9 89.4 107.1 67.7 121.9 67.7 138.2 84.6 142.3 79.2 154.5 114 183.9"/><polygon class="b" points="114 183.9 114 183.9 138.8 107.1 160.7 121.9 160.7 138.2 143.7 142.3 149 154.5 114 183.9"/><polygon class="g" points="114 183.9 134.2 124.2 94.6 121.7 114 183.9"/><path class="h" d="M206.5,198.4c0,4.7,3.4,8.6,8.1,8.6a8.08,8.08,0,0,0,8.1-8.4V133.5H206.6Z" transform="translate(0 0.1)"/><path class="i" d="M214.6,204a5,5,0,0,1-5.2-5.2l.2-24.3h10.1v24.1A5.07,5.07,0,0,1,214.6,204Z" transform="translate(0 0.1)"/><path class="j" d="M226.7,131.6a2,2,0,0,0-2-2h-19a2,2,0,0,0-2,2v1a2,2,0,0,0,2,2h19a2,2,0,0,0,2-2Z" transform="translate(0 0.1)"/><path class="h" d="M238,198.4a8.49,8.49,0,0,0,8.4,8.6,8.32,8.32,0,0,0,8.4-8.4V133.5H238.1Z" transform="translate(0 0.1)"/><path class="k" d="M246.4,204a5.21,5.21,0,0,1-5.3-5.3V186.6h10.6v12.1A5.27,5.27,0,0,1,246.4,204Z" transform="translate(0 0.1)"/><path class="j" d="M257.7,131.6a2,2,0,0,0-2-2h-19a2,2,0,0,0-2,2v1a2,2,0,0,0,2,2h19a2,2,0,0,0,2-2Z" transform="translate(0 0.1)"/><path class="h" d="M269.4,198.4c0,4.7,3.4,8.6,8.1,8.6a8.08,8.08,0,0,0,8.1-8.4V133.5H269.4Z" transform="translate(0 0.1)"/><path class="l" d="M277.6,204a5.21,5.21,0,0,1-5.2-5.4l.2-43.1h10.1v43.1A5.07,5.07,0,0,1,277.6,204Z" transform="translate(0 0.1)"/><path class="j" d="M289.7,131.6a2,2,0,0,0-2-2h-19a2,2,0,0,0-2,2v1a2,2,0,0,0,2,2h19a2,2,0,0,0,2-2Z" transform="translate(0 0.1)"/><rect class="m" x="199.7" y="218.7" width="99.3" height="8"/><rect class="a" x="295" y="141.6" width="4" height="77"/><path class="n" d="M235.3,29.2a7.7,7.7,0,1,0,0,15.4h34.5a8,8,0,0,1,0,16H212.6a8,8,0,0,0,0,16h47.3a7.6,7.6,0,1,1,0,15.2l-32.7.3a7.81,7.81,0,0,0-7.8,7.8,7.64,7.64,0,0,0,7.8,7.6H248a7.73,7.73,0,0,1,7.8,7.7,7.83,7.83,0,0,1-7.8,7.9" transform="translate(0 0.1)"/><path class="o" d="M235.3,29.2a7.9,7.9,0,0,0,0,15.8h34.5a7.51,7.51,0,1,1,0,15H212.6a8,8,0,0,0,0,16h47.3a7.9,7.9,0,0,1,0,15.8l-32.7.2a7.73,7.73,0,0,0-7.8,7.7c0,4.4,3.5,7.4,7.8,7.4H248a7.9,7.9,0,0,1,7.8,7.9,8.07,8.07,0,0,1-7.8,8.1" transform="translate(0 0.1)"/><path class="p" d="M154.7,176.5c0-1.5,0-12.9,2.8-12.9s2.8,11.4,2.8,12.9" transform="translate(0 0.1)"/><path class="q" d="M160.3,176.2c0,1.5-1,22.1-2.8,22.1s-2.8-20.5-2.8-22.1" transform="translate(0 0.1)"/><path class="q" d="M157.7,174.1a.47.47,0,0,1-.5.5h0a.47.47,0,0,1-.5-.5v-6a.47.47,0,0,1,.5-.5h0a.47.47,0,0,1,.5.5Z" transform="translate(0 0.1)"/><path class="b" d="M162.7,180.6v21.5c0,3.3-1.5,7.5-4.8,7.5H143.5c-3.3,0-6.8-4.2-6.8-7.5V180.6Z" transform="translate(0 0.1)"/><circle class="i" cx="211.1" cy="166.1" r="1.6"/><circle class="i" cx="215.7" cy="171.6" r="1.1"/><circle class="i" cx="217.3" cy="162.2" r="2.5"/><circle class="k" cx="250.1" cy="178.4" r="1.6"/><circle class="k" cx="245.6" cy="172.9" r="1.1"/><circle class="k" cx="243.9" cy="182.2" r="2.5"/><circle class="l" cx="274.1" cy="147.1" r="1.6"/><circle class="l" cx="278.7" cy="152.6" r="1.1"/><circle class="l" cx="280.3" cy="143.2" r="2.5"/><path class="g" d="M191.3,42.7l-4.5-27C185.3,7.1,182.1,0,179.4,0s-4.7,7.2-4.7,15.9v7c0,8.8-7.4,15.6-16.2,15.6h-7c-.5,0-.7.4-1.7.4V58.3a15.94,15.94,0,0,1,1.7.2H178C186.7,58.6,192.7,51.4,191.3,42.7Z" transform="translate(0 0.1)"/><path class="g" d="M35,42.7l4.5-27C40.9,7.1,44.3-.1,46.9-.1s4.8,7.2,4.8,15.9v7A15.8,15.8,0,0,0,67.8,38.4h7c.5,0,.9.4,1.9.4V58.2c-1,0-1.4.2-1.9.2H48.3C39.5,58.6,33.5,51.4,35,42.7Z" transform="translate(0 0.1)"/><path class="c" d="M150.7,123.6a11,11,0,0,1-11,11h-53a11,11,0,0,1-11-11v-93a11,11,0,0,1,11-11h53a11,11,0,0,1,11,11Z" transform="translate(0 0.1)"/></svg>